
<svg width="376px" height="38px" viewBox="0 0 376 38" version="1.1" xmlns="http://www.w3.org/2000/svg" xmlns:xlink="http://www.w3.org/1999/xlink">
    <!-- Generator: Sketch 48.2 (47327) - http://www.bohemiancoding.com/sketch -->
    <desc>Created with Sketch.</desc>
    <defs></defs>
    <g id="Page-1" stroke="none" stroke-width="1" fill="none" fill-rule="evenodd">
        <path d="M16.3745428,28.1579725 C16.3663004,28.1537792 16.3430154,28.1401842 16.3046875,28.1171875 C16.2734373,28.0859373 16.2343752,28.0546877 16.1875,28.0234375 L16,27.8359375 C15.9687498,27.7890623 15.9375002,27.7500002 15.90625,27.71875 L15.90625,27.6953125 L15.8828125,27.671875 L3.296875,6.8828125 L3.296875,32.59375 C3.296875,32.984377 3.16406383,33.3203111 2.8984375,33.6015625 C2.61718609,33.8671888 2.28906438,34 1.9140625,34 C1.52343555,34 1.18750141,33.8671888 0.90625,33.6015625 C0.640623672,33.3203111 0.5078125,32.984377 0.5078125,32.59375 L0.5078125,1.8671875 C0.5078125,1.16405898 0.851559062,0.718750937 1.5390625,0.53125 C2.21094086,0.343749063 2.73437312,0.554684453 3.109375,1.1640625 L17.078125,24.25 L31.046875,1.1640625 C31.4218769,0.554684453 31.9453091,0.343749063 32.6171875,0.53125 C33.3046909,0.718750937 33.6484375,1.16405898 33.6484375,1.8671875 L33.6484375,32.59375 C33.6484375,32.984377 33.5078139,33.3203111 33.2265625,33.6015625 C32.9609362,33.8671888 32.6328145,34 32.2421875,34 C31.8671856,34 31.5390639,33.8671888 31.2578125,33.6015625 C30.9921862,33.3203111 30.859375,32.984377 30.859375,32.59375 L30.859375,6.8828125 L18.2734375,27.671875 L18.25,27.6953125 L18.25,27.71875 C18.2187498,27.7500002 18.1875002,27.7890623 18.15625,27.8359375 L17.96875,28.0234375 C17.9218748,28.0546877 17.8828127,28.0859373 17.8515625,28.1171875 C17.7734371,28.1640627 17.7578123,28.1718752 17.8046875,28.140625 C17.8203126,28.1249999 17.7968753,28.1328123 17.734375,28.1640625 C17.6874998,28.1953127 17.6406252,28.2187499 17.59375,28.234375 C17.5624998,28.2500001 17.5234377,28.2656249 17.4765625,28.28125 C17.4296873,28.2968751 17.3828127,28.3046875 17.3359375,28.3046875 C17.3046873,28.3203126 17.2656252,28.328125 17.21875,28.328125 C17.1718748,28.3437501 17.1250002,28.3515625 17.078125,28.3515625 C17.0312498,28.3515625 16.9843752,28.3437501 16.9375,28.328125 C16.8906248,28.328125 16.8515627,28.3203126 16.8203125,28.3046875 C16.7734373,28.3046875 16.7265627,28.2968751 16.6796875,28.28125 C16.6328123,28.2656249 16.5937502,28.2500001 16.5625,28.234375 C16.5156248,28.2187499 16.4687502,28.1953127 16.421875,28.1640625 L16.375,28.1640625 C16.375,28.1618801 16.3748476,28.1598501 16.3745428,28.1579725 Z M47.3828125,23.3359375 L62.1953125,23.3359375 L54.7890625,5.4765625 L47.3828125,23.3359375 Z M41.5,33.8828125 C41.1406232,33.7421868 40.8906257,33.4921893 40.75,33.1328125 C40.5937492,32.7734357 40.5937492,32.4140643 40.75,32.0546875 L44.0078125,24.203125 L44.0078125,24.1796875 L53.5,1.28125 C53.5312502,1.20312461 53.5703123,1.11718797 53.6171875,1.0234375 L53.7109375,0.9296875 C53.7578127,0.867187188 53.7890624,0.828125078 53.8046875,0.8125 C53.8203126,0.796874922 53.8593747,0.765625234 53.921875,0.71875 C54.0000004,0.656249688 54.0312501,0.632812422 54.015625,0.6484375 C54.1718758,0.539061953 54.3359366,0.468750156 54.5078125,0.4375 L54.625,0.4375 C54.7187505,0.421874922 54.7734374,0.4140625 54.7890625,0.4140625 C54.8046876,0.4140625 54.8515621,0.421874922 54.9296875,0.4375 L55.046875,0.4375 C55.2343759,0.468750156 55.4062492,0.539061953 55.5625,0.6484375 L55.65625,0.71875 C55.7187503,0.781250312 55.7578124,0.8125 55.7734375,0.8125 C55.7890626,0.828125078 55.8203123,0.867187188 55.8671875,0.9296875 C55.9296878,1.00781289 55.9609375,1.03906258 55.9609375,1.0234375 C56.0078127,1.11718797 56.0468748,1.20312461 56.078125,1.28125 L65.5703125,24.1796875 L65.5703125,24.203125 L68.828125,32.0546875 C68.9843758,32.4140643 68.9843758,32.7734357 68.828125,33.1328125 C68.6874993,33.4921893 68.4375018,33.7421868 68.078125,33.8828125 C67.9062491,33.9609379 67.7265634,34 67.5390625,34 C66.9140594,34 66.4843762,33.7109404 66.25,33.1328125 L63.34375,26.1484375 L46.234375,26.1484375 L43.328125,33.1328125 C43.0937488,33.7109404 42.6640656,34 42.0390625,34 C41.8515616,34 41.6718759,33.9609379 41.5,33.8828125 Z M99.2265625,33.4609375 L77.78125,5.828125 L77.78125,32.59375 C77.78125,32.984377 77.6406264,33.3124987 77.359375,33.578125 C77.0937487,33.8593764 76.765627,34 76.375,34 C75.984373,34 75.6562513,33.8593764 75.390625,33.578125 C75.1093736,33.3124987 74.96875,32.984377 74.96875,32.59375 L74.96875,1.7265625 C74.96875,1.05468414 75.2812469,0.609376094 75.90625,0.390625 C76.5468782,0.171873906 77.0703105,0.328122344 77.4765625,0.859375 L98.9453125,28.4921875 L98.9453125,1.7265625 C98.9453125,1.33593555 99.0781237,1.00781383 99.34375,0.7421875 C99.6250014,0.460936094 99.9531231,0.3203125 100.328125,0.3203125 C100.718752,0.3203125 101.054686,0.460936094 101.335938,0.7421875 C101.601564,1.00781383 101.734375,1.33593555 101.734375,1.7265625 L101.734375,32.6875 C101.734375,32.7343752 101.726563,32.7812498 101.710938,32.828125 C101.710938,32.8593752 101.703125,32.8984373 101.6875,32.9453125 C101.671875,33.0078128 101.65625,33.0546873 101.640625,33.0859375 C101.625,33.1171877 101.609375,33.1562498 101.59375,33.203125 C101.578125,33.2500002 101.554688,33.2890623 101.523438,33.3203125 C101.507812,33.3515627 101.484375,33.3906248 101.453125,33.4375 C101.421875,33.4843752 101.390625,33.5234373 101.359375,33.5546875 L101.265625,33.6484375 C101.1875,33.7109378 101.164062,33.7265627 101.195312,33.6953125 C101.226563,33.6796874 101.210938,33.6953123 101.148438,33.7421875 C101.132812,33.7578126 101.109375,33.7734374 101.078125,33.7890625 C101.03125,33.8203127 100.984375,33.8437499 100.9375,33.859375 L100.84375,33.90625 C100.796875,33.9218751 100.742188,33.9374999 100.679688,33.953125 C100.632812,33.9687501 100.601563,33.9765625 100.585938,33.9765625 C100.492187,33.9921876 100.40625,34 100.328125,34 C100.234375,34 100.140625,33.9921876 100.046875,33.9765625 L99.953125,33.953125 C99.8749996,33.9218748 99.8125002,33.8984376 99.765625,33.8828125 C99.7499999,33.8671874 99.7187502,33.8437502 99.671875,33.8125 C99.6093747,33.7812498 99.5546877,33.7500002 99.5078125,33.71875 C99.4921874,33.7031249 99.4609377,33.6796877 99.4140625,33.6484375 L99.2265625,33.4609375 Z M125.523437,34 C120.882789,34 116.921891,32.351579 113.640625,29.0546875 C110.343734,25.7734211 108.695312,21.8125232 108.695312,17.171875 C108.695312,12.5312268 110.343734,8.56251648 113.640625,5.265625 C116.921891,1.98435859 120.882789,0.34375 125.523437,0.34375 C129.335957,0.34375 132.749985,1.49998844 135.765625,3.8125 C136.078127,4.06250125 136.257812,4.37499812 136.304687,4.75 C136.367188,5.14062695 136.273439,5.49218594 136.023437,5.8046875 C135.789061,6.11718906 135.476564,6.29687477 135.085937,6.34375 C134.710936,6.39062523 134.367189,6.29687617 134.054687,6.0625 C131.53905,4.12499031 128.695328,3.15625 125.523437,3.15625 C121.664043,3.15625 118.367201,4.53123625 115.632812,7.28125 C112.898424,10.0156387 111.53125,13.3124807 111.53125,17.171875 C111.53125,21.0312693 112.898424,24.3281113 115.632812,27.0625 C118.367201,29.7968887 121.664043,31.1640625 125.523437,31.1640625 C129.148456,31.1640625 132.289049,29.9531371 134.945312,27.53125 C135.242189,27.2656237 135.585936,27.1406249 135.976562,27.15625 C136.367189,27.1718751 136.695311,27.3281235 136.960937,27.625 C137.210939,27.9062514 137.328125,28.2421855 137.3125,28.6328125 C137.296875,29.0234395 137.148439,29.3515612 136.867187,29.6171875 C133.648421,32.5390771 129.867209,34 125.523437,34 Z M136.1875,34 C135.796873,34 135.460939,33.8593764 135.179688,33.578125 C134.914061,33.3124987 134.78125,32.984377 134.78125,32.59375 L134.78125,17.734375 L123.015625,17.734375 C122.624998,17.734375 122.289064,17.6015638 122.007812,17.3359375 C121.726561,17.0546861 121.585938,16.718752 121.585938,16.328125 C121.585938,15.937498 121.726561,15.6093763 122.007812,15.34375 C122.289064,15.0624986 122.624998,14.921875 123.015625,14.921875 L136.1875,14.921875 C136.578127,14.921875 136.914061,15.0624986 137.195312,15.34375 C137.460939,15.6093763 137.59375,15.937498 137.59375,16.328125 L137.59375,32.59375 C137.59375,32.984377 137.460939,33.3124987 137.195312,33.578125 C136.914061,33.8593764 136.578127,34 136.1875,34 Z M167.21875,0.4609375 C167.593752,0.4609375 167.921874,0.593748672 168.203125,0.859375 C168.468751,1.12500133 168.601562,1.45312305 168.601562,1.84375 L168.601562,22.4921875 C168.601562,25.6640784 167.476574,28.3749887 165.226562,30.625 C162.976551,32.8750113 160.265641,34 157.09375,34 C153.921859,34 151.210949,32.8750113 148.960938,30.625 C146.710926,28.3749887 145.585938,25.6640784 145.585938,22.4921875 L145.585938,1.84375 C145.585938,1.45312305 145.718749,1.12500133 145.984375,0.859375 C146.250001,0.593748672 146.578123,0.4609375 146.96875,0.4609375 C147.343752,0.4609375 147.664061,0.593748672 147.929688,0.859375 C148.195314,1.12500133 148.328125,1.45312305 148.328125,1.84375 L148.328125,22.4921875 C148.328125,24.9140746 149.187491,26.976554 150.90625,28.6796875 C152.609384,30.3984461 154.671863,31.2578125 157.09375,31.2578125 C159.500012,31.2578125 161.562491,30.3984461 163.28125,28.6796875 C165.000009,26.976554 165.859375,24.9140746 165.859375,22.4921875 L165.859375,1.84375 C165.859375,1.45312305 165.992186,1.12500133 166.257812,0.859375 C166.523439,0.593748672 166.843748,0.4609375 167.21875,0.4609375 Z M197.617188,34 L179.007812,34 C178.617186,34 178.289064,33.8593764 178.023438,33.578125 C177.742186,33.3124987 177.601562,32.984377 177.601562,32.59375 L177.601562,1.75 C177.601562,1.35937305 177.742186,1.03125133 178.023438,0.765625 C178.304689,0.468748516 178.632811,0.328124922 179.007812,0.34375 L197.617188,0.390625 C198.007814,0.390625 198.335936,0.531248594 198.601562,0.8125 C198.882814,1.09375141 199.023438,1.42187312 199.023438,1.796875 C199.023438,2.18750195 198.882814,2.52343609 198.601562,2.8046875 C198.335936,3.07031383 198.007814,3.203125 197.617188,3.203125 L180.414062,3.15625 L180.414062,15.765625 L193.28125,15.765625 C193.671877,15.765625 193.999999,15.9062486 194.265625,16.1875 C194.546876,16.4531263 194.6875,16.781248 194.6875,17.171875 C194.6875,17.562502 194.546876,17.8906237 194.265625,18.15625 C193.999999,18.4375014 193.671877,18.578125 193.28125,18.578125 L180.414062,18.578125 L180.414062,31.1875 L197.617188,31.1875 C198.007814,31.1875 198.335936,31.3281236 198.601562,31.609375 C198.882814,31.8750013 199.023438,32.203123 199.023438,32.59375 C199.023438,32.984377 198.882814,33.3124987 198.601562,33.578125 C198.335936,33.8593764 198.007814,34 197.617188,34 Z M206.898438,31.609375 C207.164064,31.3593738 207.499998,31.234375 207.90625,31.234375 C208.296877,31.234375 208.624999,31.3593738 208.890625,31.609375 C209.156251,31.8906264 209.289062,32.2187481 209.289062,32.59375 C209.289062,32.984377 209.156251,33.3124987 208.890625,33.578125 C208.609374,33.8593764 208.281252,34 207.90625,34 C207.515623,34 207.179689,33.8593764 206.898438,33.578125 C206.632811,33.3124987 206.5,32.984377 206.5,32.59375 C206.5,32.2187481 206.632811,31.8906264 206.898438,31.609375 Z M222.742188,1.890625 L222.742188,32.59375 C222.742188,32.984377 222.601564,33.3124987 222.320312,33.578125 C222.054686,33.8593764 221.726564,34 221.335938,34 C220.945311,34 220.617189,33.8593764 220.351562,33.578125 C220.070311,33.3124987 219.929688,32.984377 219.929688,32.59375 L219.929688,1.890625 C219.929688,1.49999805 220.070311,1.17187633 220.351562,0.90625 C220.617189,0.624998594 220.945311,0.484375 221.335938,0.484375 C221.726564,0.484375 222.054686,0.624998594 222.320312,0.90625 C222.601564,1.17187633 222.742188,1.49999805 222.742188,1.890625 Z M246.835937,3.1796875 C242.976543,3.1796875 239.679701,4.55467375 236.945312,7.3046875 C234.210924,10.0390762 232.84375,13.3359182 232.84375,17.1953125 C232.84375,21.0547068 234.210924,24.3515488 236.945312,27.0859375 C239.679701,29.8203262 242.976543,31.1875 246.835937,31.1875 C250.695332,31.1875 253.992174,29.8203262 256.726562,27.0859375 C259.476576,24.3515488 260.851562,21.0547068 260.851562,17.1953125 C260.851562,13.3359182 259.476576,10.0390762 256.726562,7.3046875 C253.992174,4.55467375 250.695332,3.1796875 246.835937,3.1796875 Z M246.835938,34 C242.195289,34 238.234391,32.3593914 234.953125,29.078125 C231.671859,25.7968586 230.03125,21.8359607 230.03125,17.1953125 C230.03125,12.5546643 231.671859,8.59376641 234.953125,5.3125 C238.234391,2.03123359 242.195289,0.390625 246.835938,0.390625 C251.476586,0.390625 255.437484,2.03123359 258.71875,5.3125 C262.000016,8.59376641 263.640625,12.5546643 263.640625,17.1953125 C263.640625,21.8359607 262.000016,25.7968586 258.71875,29.078125 C255.437484,32.3593914 251.476586,34 246.835938,34 Z M277.678063,21.148 L283.348062,21.148 C284.260067,21.148 285.00406,21.2799987 285.580062,21.544 C286.156065,21.8080013 286.600061,22.137998 286.912063,22.534 C287.224064,22.930002 287.437062,23.3619977 287.551062,23.83 C287.665063,24.2980023 287.722062,24.729998 287.722062,25.126 C287.722062,25.522002 287.665063,25.9509977 287.551062,26.413 C287.437062,26.8750023 287.224064,27.303998 286.912063,27.7 C286.600061,28.096002 286.156065,28.4229987 285.580062,28.681 C285.00406,28.9390013 284.260067,29.068 283.348062,29.068 L279.928063,29.068 L279.928063,34 L277.678063,34 L277.678063,21.148 Z M279.928063,27.232 L283.222062,27.232 C283.474064,27.232 283.732061,27.1960004 283.996062,27.124 C284.260064,27.0519996 284.503061,26.9350008 284.725063,26.773 C284.947064,26.6109992 285.127062,26.3950014 285.265062,26.125 C285.403063,25.8549986 285.472062,25.516002 285.472062,25.108 C285.472062,24.6879979 285.412063,24.3400014 285.292063,24.064 C285.172062,23.7879986 285.010064,23.5690008 284.806063,23.407 C284.602061,23.2449992 284.368064,23.1340003 284.104063,23.074 C283.840061,23.0139997 283.558064,22.984 283.258063,22.984 L279.928063,22.984 L279.928063,27.232 Z M293.662063,34.252 C292.918059,34.252 292.255065,34.1290012 291.673063,33.883 C291.09106,33.6369988 290.599065,33.2980022 290.197063,32.866 C289.79506,32.4339978 289.489064,31.918003 289.279063,31.318 C289.069061,30.717997 288.964063,30.0580036 288.964063,29.338 C288.964063,28.6299965 289.069061,27.976003 289.279063,27.376 C289.489064,26.775997 289.79506,26.2600022 290.197063,25.828 C290.599065,25.3959978 291.09106,25.0570012 291.673063,24.811 C292.255065,24.5649988 292.918059,24.442 293.662063,24.442 C294.406066,24.442 295.06906,24.5649988 295.651063,24.811 C296.233065,25.0570012 296.72506,25.3959978 297.127062,25.828 C297.529065,26.2600022 297.835061,26.775997 298.045063,27.376 C298.255064,27.976003 298.360063,28.6299965 298.360063,29.338 C298.360063,30.0580036 298.255064,30.717997 298.045063,31.318 C297.835061,31.918003 297.529065,32.4339978 297.127062,32.866 C296.72506,33.2980022 296.233065,33.6369988 295.651063,33.883 C295.06906,34.1290012 294.406066,34.252 293.662063,34.252 Z M293.662063,32.632 C294.118065,32.632 294.514061,32.536001 294.850063,32.344 C295.186064,32.151999 295.462061,31.9000016 295.678063,31.588 C295.894064,31.2759984 296.053062,30.925002 296.155062,30.535 C296.257063,30.1449981 296.308063,29.746002 296.308063,29.338 C296.308063,28.941998 296.257063,28.546002 296.155062,28.15 C296.053062,27.753998 295.894064,27.4030015 295.678063,27.097 C295.462061,26.7909985 295.186064,26.542001 294.850063,26.35 C294.514061,26.157999 294.118065,26.062 293.662063,26.062 C293.20606,26.062 292.810064,26.157999 292.474063,26.35 C292.138061,26.542001 291.862064,26.7909985 291.646062,27.097 C291.430061,27.4030015 291.271063,27.753998 291.169063,28.15 C291.067062,28.546002 291.016063,28.941998 291.016063,29.338 C291.016063,29.746002 291.067062,30.1449981 291.169063,30.535 C291.271063,30.925002 291.430061,31.2759984 291.646062,31.588 C291.862064,31.9000016 292.138061,32.151999 292.474063,32.344 C292.810064,32.536001 293.20606,32.632 293.662063,32.632 Z M299.224062,24.694 L301.402063,24.694 L303.220063,31.642 L303.256063,31.642 L305.002062,24.694 L307.072063,24.694 L308.746063,31.642 L308.782063,31.642 L310.672063,24.694 L312.760063,24.694 L309.844063,34 L307.738063,34 L306.010063,27.088 L305.974062,27.088 L304.264063,34 L302.104063,34 L299.224062,24.694 Z M320.464063,28.528 C320.440062,28.2039984 320.371063,27.8920015 320.257063,27.592 C320.143062,27.2919985 319.987063,27.0310011 319.789062,26.809 C319.591062,26.5869989 319.351064,26.4070007 319.069062,26.269 C318.787061,26.1309993 318.472064,26.062 318.124063,26.062 C317.764061,26.062 317.437064,26.1249994 317.143063,26.251 C316.849061,26.3770006 316.597064,26.5509989 316.387062,26.773 C316.177061,26.9950011 316.009063,27.2559985 315.883063,27.556 C315.757062,27.8560015 315.688063,28.1799983 315.676063,28.528 L320.464063,28.528 Z M315.676063,29.878 C315.676063,30.2380018 315.727062,30.5859983 315.829062,30.922 C315.931063,31.2580017 316.084061,31.5519987 316.288062,31.804 C316.492064,32.0560013 316.750061,32.2569992 317.062062,32.407 C317.374064,32.5570007 317.74606,32.632 318.178063,32.632 C318.778065,32.632 319.261061,32.5030013 319.627062,32.245 C319.993064,31.9869987 320.266062,31.6000026 320.446062,31.084 L322.390063,31.084 C322.282062,31.5880025 322.096064,32.037998 321.832063,32.434 C321.568061,32.830002 321.250064,33.1629987 320.878062,33.433 C320.506061,33.7030014 320.089065,33.9069993 319.627062,34.045 C319.16506,34.1830007 318.682065,34.252 318.178063,34.252 C317.446059,34.252 316.798065,34.1320012 316.234062,33.892 C315.67006,33.6519988 315.193064,33.3160022 314.803063,32.884 C314.413061,32.4519978 314.119063,31.936003 313.921063,31.336 C313.723062,30.735997 313.624062,30.0760036 313.624062,29.356 C313.624062,28.6959967 313.729061,28.069003 313.939063,27.475 C314.149064,26.880997 314.449061,26.3590023 314.839063,25.909 C315.229064,25.4589977 315.70006,25.1020013 316.252062,24.838 C316.804065,24.5739987 317.428059,24.442 318.124062,24.442 C318.856066,24.442 319.51306,24.5949985 320.095062,24.901 C320.677065,25.2070015 321.160061,25.6119975 321.544063,26.116 C321.928064,26.6200025 322.207062,27.1989967 322.381063,27.853 C322.555063,28.5070033 322.600063,29.1819965 322.516063,29.878 L315.676063,29.878 Z M324.082063,24.694 L326.008063,24.694 L326.008063,26.494 L326.044062,26.494 C326.104063,26.2419987 326.221062,25.9960012 326.395062,25.756 C326.569063,25.5159988 326.779061,25.297001 327.025063,25.099 C327.271064,24.900999 327.544061,24.7420006 327.844063,24.622 C328.144064,24.5019994 328.450061,24.442 328.762062,24.442 C329.002064,24.442 329.167062,24.4479999 329.257063,24.46 C329.347063,24.4720001 329.440062,24.4839999 329.536063,24.496 L329.536063,26.476 C329.392062,26.4519999 329.245063,26.4310001 329.095063,26.413 C328.945062,26.3949999 328.798063,26.386 328.654063,26.386 C328.306061,26.386 327.979064,26.4549993 327.673063,26.593 C327.367061,26.7310007 327.100064,26.9349987 326.872063,27.205 C326.644061,27.4750014 326.464063,27.807998 326.332063,28.204 C326.200062,28.600002 326.134063,29.0559974 326.134063,29.572 L326.134063,34 L324.082063,34 L324.082063,24.694 Z M336.484063,28.528 C336.460062,28.2039984 336.391063,27.8920015 336.277063,27.592 C336.163062,27.2919985 336.007063,27.0310011 335.809062,26.809 C335.611062,26.5869989 335.371064,26.4070007 335.089062,26.269 C334.807061,26.1309993 334.492064,26.062 334.144063,26.062 C333.784061,26.062 333.457064,26.1249994 333.163063,26.251 C332.869061,26.3770006 332.617064,26.5509989 332.407062,26.773 C332.197061,26.9950011 332.029063,27.2559985 331.903063,27.556 C331.777062,27.8560015 331.708063,28.1799983 331.696063,28.528 L336.484063,28.528 Z M331.696062,29.878 C331.696062,30.2380018 331.747062,30.5859983 331.849062,30.922 C331.951063,31.2580017 332.104061,31.5519987 332.308062,31.804 C332.512064,32.0560013 332.770061,32.2569992 333.082062,32.407 C333.394064,32.5570007 333.76606,32.632 334.198063,32.632 C334.798066,32.632 335.281061,32.5030013 335.647062,32.245 C336.013064,31.9869987 336.286062,31.6000026 336.466062,31.084 L338.410063,31.084 C338.302062,31.5880025 338.116064,32.037998 337.852063,32.434 C337.588061,32.830002 337.270064,33.1629987 336.898062,33.433 C336.526061,33.7030014 336.109065,33.9069993 335.647062,34.045 C335.18506,34.1830007 334.702065,34.252 334.198063,34.252 C333.466059,34.252 332.818065,34.1320012 332.254062,33.892 C331.69006,33.6519988 331.213064,33.3160022 330.823063,32.884 C330.433061,32.4519978 330.139063,31.936003 329.941062,31.336 C329.743062,30.735997 329.644062,30.0760036 329.644062,29.356 C329.644062,28.6959967 329.749061,28.069003 329.959063,27.475 C330.169064,26.880997 330.469061,26.3590023 330.859062,25.909 C331.249064,25.4589977 331.72006,25.1020013 332.272062,24.838 C332.824065,24.5739987 333.448059,24.442 334.144062,24.442 C334.876066,24.442 335.53306,24.5949985 336.115062,24.901 C336.697065,25.2070015 337.180061,25.6119975 337.564063,26.116 C337.948064,26.6200025 338.227062,27.1989967 338.401063,27.853 C338.575063,28.5070033 338.620063,29.1819965 338.536063,29.878 L331.696062,29.878 Z M348.868062,34 L346.924062,34 L346.924062,32.74 L346.888062,32.74 C346.612061,33.2800027 346.210065,33.6669988 345.682062,33.901 C345.15406,34.1350012 344.596065,34.252 344.008062,34.252 C343.276059,34.252 342.637065,34.1230013 342.091062,33.865 C341.54506,33.6069987 341.092064,33.2560022 340.732062,32.812 C340.372061,32.3679978 340.102063,31.843003 339.922062,31.237 C339.742062,30.630997 339.652062,29.9800035 339.652062,29.284 C339.652062,28.4439958 339.766061,27.7180031 339.994062,27.106 C340.222064,26.4939969 340.525061,25.990002 340.903062,25.594 C341.281064,25.197998 341.71306,24.9070009 342.199063,24.721 C342.685065,24.5349991 343.18006,24.442 343.684062,24.442 C343.972064,24.442 344.266061,24.4689997 344.566062,24.523 C344.866064,24.5770003 345.154061,24.6639994 345.430063,24.784 C345.706064,24.9040006 345.961061,25.0569991 346.195062,25.243 C346.429064,25.4290009 346.624062,25.6479987 346.780062,25.9 L346.816062,25.9 L346.816062,21.148 L348.868062,21.148 L348.868062,34 Z M341.704062,29.446 C341.704062,29.842002 341.755062,30.2319981 341.857062,30.616 C341.959063,31.0000019 342.115061,31.3419985 342.325063,31.642 C342.535064,31.9420015 342.802061,32.1819991 343.126062,32.362 C343.450064,32.5420009 343.83406,32.632 344.278063,32.632 C344.734065,32.632 345.127061,32.536001 345.457063,32.344 C345.787064,32.151999 346.057061,31.9000016 346.267063,31.588 C346.477064,31.2759984 346.633062,30.925002 346.735063,30.535 C346.837063,30.1449981 346.888062,29.746002 346.888062,29.338 C346.888062,28.3059948 346.657065,27.5020029 346.195062,26.926 C345.73306,26.3499971 345.106066,26.062 344.314062,26.062 C343.83406,26.062 343.429064,26.160999 343.099062,26.359 C342.769061,26.557001 342.499064,26.8149984 342.289062,27.133 C342.079061,27.4510016 341.929063,27.810998 341.839062,28.213 C341.749062,28.615002 341.704062,29.0259979 341.704062,29.446 Z M356.158062,21.148 L358.210062,21.148 L358.210062,25.9 L358.246062,25.9 C358.390063,25.6719989 358.564061,25.4680009 358.768062,25.288 C358.972064,25.1079991 359.197061,24.9550006 359.443062,24.829 C359.689064,24.7029994 359.947061,24.6070003 360.217062,24.541 C360.487064,24.4749997 360.754061,24.442 361.018062,24.442 C361.750066,24.442 362.38906,24.5709987 362.935062,24.829 C363.481065,25.0870013 363.934061,25.4409978 364.294062,25.891 C364.654064,26.3410022 364.924062,26.865997 365.104062,27.466 C365.284063,28.066003 365.374062,28.7079966 365.374062,29.392 C365.374062,30.0160031 365.293063,30.6219971 365.131063,31.21 C364.969062,31.7980029 364.723064,32.3169977 364.393062,32.767 C364.063061,33.2170023 363.646065,33.5769987 363.142063,33.847 C362.63806,34.1170014 362.044066,34.252 361.360062,34.252 C361.048061,34.252 360.733064,34.2310002 360.415062,34.189 C360.097061,34.1469998 359.794064,34.0660006 359.506063,33.946 C359.218061,33.8259994 358.957064,33.670001 358.723062,33.478 C358.489061,33.285999 358.294063,33.0340016 358.138062,32.722 L358.102062,32.722 L358.102062,34 L356.158062,34 L356.158062,21.148 Z M363.322062,29.356 C363.322062,28.9359979 363.268063,28.528002 363.160063,28.132 C363.052062,27.735998 362.890064,27.3850015 362.674062,27.079 C362.458061,26.7729985 362.188064,26.5270009 361.864062,26.341 C361.540061,26.1549991 361.168065,26.062 360.748063,26.062 C359.884058,26.062 359.233065,26.361997 358.795063,26.962 C358.35706,27.562003 358.138062,28.359995 358.138062,29.356 C358.138062,29.8240023 358.195062,30.258998 358.309062,30.661 C358.423063,31.063002 358.594061,31.4079986 358.822062,31.696 C359.050064,31.9840014 359.323061,32.2119992 359.641063,32.38 C359.959064,32.5480008 360.32806,32.632 360.748063,32.632 C361.216065,32.632 361.612061,32.536001 361.936062,32.344 C362.260064,32.151999 362.527061,31.9030015 362.737063,31.597 C362.947064,31.2909985 363.097062,30.9430019 363.187062,30.553 C363.277063,30.162998 363.322062,29.764002 363.322062,29.356 Z M366.076062,24.694 L368.326062,24.694 L370.756062,31.642 L370.792062,31.642 L373.150062,24.694 L375.292062,24.694 L371.674062,34.504 C371.506062,34.9240021 371.341063,35.3259981 371.179062,35.71 C371.017062,36.0940019 370.819064,36.4329985 370.585062,36.727 C370.351061,37.0210015 370.060064,37.2549991 369.712062,37.429 C369.364061,37.6030009 368.920065,37.69 368.380062,37.69 C367.90006,37.69 367.426065,37.6540004 366.958062,37.582 L366.958062,35.854 C367.126063,35.8780001 367.288062,35.9049998 367.444062,35.935 C367.600063,35.9650001 367.762062,35.98 367.930063,35.98 C368.170064,35.98 368.368062,35.9500003 368.524062,35.89 C368.680063,35.8299997 368.809062,35.7430006 368.911063,35.629 C369.013063,35.5149994 369.100062,35.3800008 369.172062,35.224 C369.244063,35.0679992 369.310062,34.888001 369.370062,34.684 L369.604062,33.964 L366.076062,24.694 Z" id="Mangue.io-Powered-by" fill="#E89E3C"></path>
    </g>
</svg>
